<svg width="26" height="26" viewBox="0 0 26 26" fill="none" xmlns="http://www.w3.org/2000/svg">
<path d="M22.75 13C22.75 18.3848 18.3848 22.75 13 22.75C7.61523 22.75 3.25 18.3848 3.25 13C3.25 7.61523 7.61523 3.25 13 3.25C18.3848 3.25 22.75 7.61523 22.75 13Z" stroke="#EDCD59" stroke-width="1.625" stroke-linejoin="round"/>
<path fill-rule="evenodd" clip-rule="evenodd" d="M17.1214 10.2154C17.8249 9.04298 18.1766 8.45675 18.0187 8.18116C17.9709 8.09758 17.9016 8.02828 17.818 7.98041C17.5424 7.82252 16.9562 8.17426 15.7838 8.87773L11.6766 11.342C11.5842 11.3974 11.5381 11.4251 11.4987 11.4609C11.4855 11.4728 11.473 11.4853 11.4612 11.4984C11.4253 11.5379 11.3977 11.584 11.3422 11.6764L8.87798 15.7835C8.1745 16.956 7.82278 17.5421 7.98065 17.8177C8.02853 17.9014 8.09782 17.9706 8.1814 18.0185C8.45699 18.1763 9.04322 17.8247 10.2157 17.1212L14.3228 14.6569C14.4151 14.6015 14.4614 14.5738 14.5008 14.5381C14.5139 14.5261 14.5264 14.5136 14.5383 14.5005C14.574 14.461 14.6018 14.4149 14.6572 14.3225L17.1214 10.2154ZM13.5736 13.5728C13.8909 13.2555 13.8909 12.741 13.5736 12.4237C13.2563 12.1064 12.7418 12.1064 12.4245 12.4237C12.1072 12.741 12.1072 13.2555 12.4245 13.5728C12.7418 13.8901 13.2563 13.8901 13.5736 13.5728Z" fill="#EDCD59"/>
</svg>
