<svg width="50" height="50" viewBox="0 0 50 50" fill="none" xmlns="http://www.w3.org/2000/svg">
<path d="M42.1887 17.9763V43.9217C42.1887 44.906 41.7591 45.7029 41.2356 45.7029H8.76685C8.24341 45.7029 7.81372 44.906 7.81372 43.9217V17.9763L23.509 4.83571C23.6069 4.75054 23.7144 4.67713 23.8293 4.61696C24.2407 4.3738 24.7176 4.26495 25.1937 4.30555C25.6698 4.34616 26.1214 4.53421 26.4856 4.84353L42.1887 17.9763Z" fill="#98ACF8"/>
<path d="M46.6966 22.7649C46.5629 22.9229 46.3726 23.022 46.1666 23.041C45.9605 23.06 45.7553 22.9973 45.595 22.8665L42.1888 20.0149L25.4856 6.03837C25.3515 5.92126 25.1794 5.85672 25.0013 5.85672C24.8232 5.85672 24.6511 5.92126 24.5169 6.03837L7.81377 20.0149L4.40752 22.8665C4.26614 22.9815 4.08977 23.0449 3.90752 23.0462C3.79266 23.0469 3.67908 23.022 3.57502 22.9734C3.47097 22.9247 3.37906 22.8535 3.30595 22.7649C3.24028 22.6859 3.19081 22.5948 3.16037 22.4967C3.12993 22.3986 3.11912 22.2954 3.12855 22.1931C3.13798 22.0908 3.16747 21.9914 3.21534 21.9005C3.2632 21.8096 3.32851 21.729 3.40752 21.6634L7.81377 17.9759L23.5091 4.83525C23.9269 4.48624 24.4544 4.2957 24.9988 4.29713C25.5432 4.29856 26.0697 4.49186 26.4856 4.84306L42.1888 17.9759L46.595 21.6634C46.7529 21.797 46.8521 21.9874 46.8711 22.1934C46.8901 22.3994 46.8274 22.6047 46.6966 22.7649Z" fill="#FCD21D"/>
<path d="M35.9388 24.156V38.0388H14.0638V24.156C14.0526 23.9768 14.1129 23.8005 14.2315 23.6657C14.3502 23.5309 14.5175 23.4488 14.6967 23.4373H35.306C35.4852 23.4488 35.6525 23.5309 35.7712 23.6657C35.8898 23.8005 35.9501 23.9768 35.9388 24.156Z" fill="#476BF5"/>
<path d="M35.9387 35.9373V38.0388H14.0637V35.9373H21.0168C21.1032 35.9522 21.1873 35.9785 21.2668 36.0154C21.4777 36.1638 21.9543 36.4607 22.3606 36.7185H27.6418C28.0336 36.5424 28.4055 36.325 28.7512 36.0701C28.8333 35.9951 28.9374 35.9485 29.0481 35.9373H35.9387Z" fill="white"/>
<path d="M29.0498 36.7185C28.938 36.7285 28.8324 36.7745 28.749 36.8498C28.4059 37.1059 28.0358 37.3239 27.6454 37.4998H22.357C21.957 37.2394 21.4809 36.9464 21.2679 36.7999C21.1882 36.7595 21.1027 36.732 21.0144 36.7185H13.0965C12.9398 36.7173 12.7891 36.7783 12.6775 36.8882C12.5659 36.9981 12.5025 37.1478 12.5012 37.3045C12.5066 37.9832 12.7814 38.632 13.2651 39.1081C13.7488 39.5843 14.4018 39.8488 15.0806 39.8435H34.9219C35.6006 39.8488 36.2536 39.5843 36.7374 39.1081C37.2211 38.632 37.4958 37.9832 37.5012 37.3045C37.5 37.1478 37.4366 36.9981 37.3249 36.8882C37.2133 36.7783 37.0626 36.7173 36.906 36.7185H29.0498Z" fill="#476BF5"/>
<path d="M18.8214 31.8692L25.0714 25.6192C25.2183 25.4746 25.4164 25.394 25.6225 25.3948C25.8286 25.3956 26.026 25.4778 26.1718 25.6236C26.3175 25.7693 26.3997 25.9668 26.4006 26.1729C26.4014 26.379 26.3207 26.5771 26.1761 26.724L19.9261 32.974C19.7793 33.1189 19.5811 33.1998 19.3748 33.1991C19.1685 33.1985 18.9709 33.1162 18.825 32.9703C18.6791 32.8245 18.5969 32.6268 18.5962 32.4205C18.5955 32.2142 18.6765 32.016 18.8214 31.8692Z" fill="white"/>
<path d="M24.4488 30.6973L27.5738 27.5723C27.7206 27.4275 27.9188 27.3467 28.125 27.3474C28.3312 27.3481 28.5288 27.4304 28.6746 27.5762C28.8205 27.722 28.9027 27.9196 28.9034 28.1258C28.9042 28.3321 28.8233 28.5302 28.6785 28.6771L25.5535 31.8021C25.4067 31.9468 25.2085 32.0277 25.0023 32.027C24.7961 32.0262 24.5985 31.944 24.4527 31.7982C24.3069 31.6523 24.2246 31.4548 24.2239 31.2485C24.2232 31.0423 24.304 30.8442 24.4488 30.6973Z" fill="white"/>
</svg>
