<svg width="42" height="41" viewBox="0 0 42 41" fill="none" xmlns="http://www.w3.org/2000/svg">
<g clip-path="url(#clip0_29_233)">
<path d="M16.9628 34.9854C7.94707 34.9854 0.63916 27.3501 0.63916 17.9377C0.63916 8.52528 7.94795 0.890015 16.9628 0.890015H20.1872V34.9854H16.9628Z" fill="#3E3E7A"/>
<path d="M36.5135 17.9377C36.5136 18.6711 36.4691 19.4038 36.3801 20.1318C36.2679 21.0442 36.0845 21.9465 35.8316 22.8304C33.9983 29.23 28.6624 34.0508 22.1461 34.8625C19.8966 35.1441 17.6129 34.9369 15.4507 34.2552C8.74576 32.1349 3.86621 25.6309 3.86621 17.9368C3.86358 8.52528 11.1706 0.890015 20.1881 0.890015C29.2056 0.890015 36.5135 8.52528 36.5135 17.9377Z" fill="#51518E"/>
<path d="M33.6569 17.9377C33.6569 18.1905 33.6505 18.4415 33.6376 18.6907C33.5453 20.5783 33.084 22.4296 32.2799 24.1398C30.3606 28.2137 26.6079 31.1765 22.1452 31.8549C19.8864 32.198 17.5771 31.9398 15.4499 31.1063C10.3492 29.1045 6.72021 23.9643 6.72021 17.9421C6.72021 10.1699 12.7503 3.8739 20.1881 3.8739C27.6259 3.8739 33.6569 10.1699 33.6569 17.9377Z" fill="#FCF4F6"/>
<path d="M22.145 31.8549V34.8634C19.8956 35.1449 17.6118 34.9378 15.4497 34.2561V31.1063C17.5769 31.9398 19.8863 32.198 22.145 31.8549Z" fill="#3E3E7A"/>
<path d="M38.9303 21.6895L35.8315 22.8304L32.2806 24.1389L23.1446 27.5054C22.8521 27.6122 22.5993 27.8062 22.4205 28.0613C22.2417 28.3163 22.1456 28.6201 22.145 28.9316V31.8549C19.8863 32.198 17.5769 31.9398 15.4497 31.1063V25.4158C15.4503 25.1044 15.5464 24.8006 15.7252 24.5455C15.9039 24.2905 16.1567 24.0965 16.4493 23.9897L31.8374 18.3212C32.0402 18.2466 32.2563 18.2153 32.4718 18.2294C32.6874 18.2434 32.8976 18.3025 33.0889 18.4028L33.6374 18.6907L36.38 20.1308L38.3608 21.1708C38.5917 21.2924 38.7877 21.4709 38.9303 21.6895Z" fill="#F0E3E7"/>
<path d="M20.4909 19.7009H15.3595C14.6266 19.7009 13.9965 19.1383 13.9623 18.4064C13.9534 18.2224 13.9819 18.0386 14.0462 17.866C14.1104 17.6934 14.209 17.5357 14.3361 17.4023C14.4631 17.269 14.6159 17.1628 14.7852 17.0903C14.9544 17.0177 15.1367 16.9803 15.3208 16.9803H18.7681C18.8642 16.9803 18.9564 16.9421 19.0244 16.8741C19.0924 16.8061 19.1306 16.7139 19.1306 16.6178V9.7961C19.1306 9.06329 19.6931 8.43316 20.4251 8.39893C20.6087 8.39003 20.7923 8.41846 20.9646 8.4825C21.137 8.54653 21.2946 8.64485 21.4279 8.7715C21.5612 8.89815 21.6674 9.05051 21.7402 9.21938C21.8129 9.38824 21.8507 9.5701 21.8512 9.75397V18.3371C21.8516 18.516 21.8168 18.6933 21.7486 18.8587C21.6805 19.0242 21.5804 19.1745 21.454 19.3012C21.3276 19.4279 21.1775 19.5284 21.0123 19.597C20.847 19.6656 20.6698 19.7009 20.4909 19.7009Z" fill="#51518E"/>
<path d="M41.3605 22.8813V33.7005C41.3597 34.0119 41.2635 34.3156 41.0848 34.5706C40.906 34.8256 40.6534 35.0197 40.3609 35.1267L24.9728 40.7952C24.7698 40.8693 24.5537 40.9003 24.338 40.8862C24.1224 40.8722 23.9121 40.8134 23.7204 40.7136L18.4495 37.9447C18.2036 37.8165 17.9976 37.6234 17.8537 37.3864C17.7098 37.1494 17.6336 36.8775 17.6333 36.6002V25.7818C17.6336 25.4707 17.7294 25.1671 17.9077 24.9121C18.086 24.6571 18.3382 24.4629 18.6303 24.3557L34.0184 18.6872C34.2211 18.6125 34.4372 18.5813 34.6528 18.5953C34.8683 18.6094 35.0786 18.6685 35.2699 18.7688L40.2977 21.4086L40.5417 21.5368C40.7727 21.6583 40.9687 21.8369 41.1113 22.0555C41.2729 22.3006 41.3595 22.5876 41.3605 22.8813Z" fill="#FFB48D"/>
<path d="M41.3605 22.8813V27.2922C41.3605 29.2502 39.8123 29.9198 39.8123 29.9198L26.5419 34.8081C26.5419 34.8081 24.3286 35.598 24.3286 33.1977L20.9998 25.9898L40.3003 21.4087L40.5443 21.5368C40.7752 21.6584 40.9713 21.8369 41.1138 22.0555C41.2745 22.301 41.3602 22.5879 41.3605 22.8813Z" fill="#EB8F65"/>
<path d="M41.1139 22.0555L25.3282 27.8714C25.0356 27.9782 24.7829 28.1722 24.6041 28.4272C24.4253 28.6823 24.3292 28.9861 24.3286 29.2975V40.8821C24.1159 40.8667 23.9087 40.8069 23.7204 40.7066L18.4495 37.9377C18.2036 37.8095 17.9976 37.6164 17.8537 37.3793C17.7098 37.1423 17.6336 36.8704 17.6333 36.5932V25.7818C17.6336 25.4707 17.7294 25.1671 17.9077 24.9121C18.086 24.6571 18.3382 24.4629 18.6303 24.3557L34.0184 18.6872C34.2211 18.6125 34.4372 18.5813 34.6528 18.5953C34.8683 18.6094 35.0786 18.6685 35.2699 18.7688L40.5417 21.5368C40.7736 21.658 40.9706 21.8365 41.1139 22.0555Z" fill="#F5A27E"/>
<path d="M33.0696 19.2629V22.1713C33.0696 22.1713 32.5492 23.0972 31.3311 22.7181C30.9622 22.5934 30.6165 22.4086 30.3078 22.1713V20.4872L27.2537 21.865V24.2083C27.2537 24.2083 26.0803 26.2663 24.3303 24.9806V20.4722L30.944 17.4585C30.944 17.4585 33.0696 17.1759 33.0696 19.2629Z" fill="#51518E"/>
<path d="M31.3312 19.972V22.7181C30.9623 22.5934 30.6165 22.4087 30.3079 22.1714V20.4872L31.3312 19.972Z" fill="#3E3E7A"/>
<path d="M30.7036 36.2668C31.6269 36.2668 32.3755 34.9006 32.3755 33.2153C32.3755 31.53 31.6269 30.1638 30.7036 30.1638C29.7803 30.1638 29.0317 31.53 29.0317 33.2153C29.0317 34.9006 29.7803 36.2668 30.7036 36.2668Z" fill="#51518E"/>
<path d="M37.2585 33.8586C38.1819 33.8586 38.9304 32.4924 38.9304 30.8071C38.9304 29.1218 38.1819 27.7556 37.2585 27.7556C36.3352 27.7556 35.5867 29.1218 35.5867 30.8071C35.5867 32.4924 36.3352 33.8586 37.2585 33.8586Z" fill="#51518E"/>
</g>
<defs>
<clipPath id="clip0_29_233">
<rect width="40.7214" height="40" fill="white" transform="translate(0.63916 0.890015)"/>
</clipPath>
</defs>
</svg>
