<svg width="40" height="40" viewBox="0 0 40 40" fill="none" xmlns="http://www.w3.org/2000/svg">
<path d="M32.4999 16.875C32.501 14.9572 32.148 13.0557 31.4586 11.266L28.7499 8.75003L28.5108 6.45834C25.8165 3.44348 22.0574 1.59166 18.0251 1.29275C13.9928 0.993833 10.0018 2.27115 6.89238 4.85578L1.44238 19.2788C1.74627 21.2615 2.43185 23.1663 3.46113 24.8878L6.87495 26.875L7.96795 29.6955C11.2403 31.9802 15.2649 32.9215 19.2111 32.3251C23.1573 31.7287 26.7239 29.6401 29.1749 26.4904L32.4999 16.875Z" fill="#5070AA"/>
<path d="M29.175 26.4903L32.5 16.8749C32.5011 14.9571 32.148 13.0556 31.4586 11.2659L28.75 8.74994L28.5109 6.45826L28.4944 6.44082C26.8323 4.96472 24.8742 3.8604 22.7511 3.20164C20.6279 2.54288 18.3886 2.34487 16.1828 2.62084C13.9771 2.8968 11.8556 3.64039 9.96017 4.8019C8.06477 5.96341 6.4391 7.5161 5.19182 9.35619L2.63076 16.1336C2.5451 16.7939 2.50143 17.4591 2.50001 18.1249C2.49732 20.6465 3.10784 23.1309 4.27895 25.364L6.87501 26.8749L7.96801 29.6954C11.2404 31.9802 15.2649 32.9214 19.2111 32.325C23.1573 31.7286 26.724 29.64 29.175 26.4903Z" fill="#3C5A92"/>
<path d="M14.4712 9.6634C14.1555 9.66341 13.8429 9.60124 13.5513 9.48044C13.2596 9.35964 12.9946 9.18258 12.7714 8.95936C12.5482 8.73615 12.3711 8.47115 12.2503 8.1795C12.1295 7.88785 12.0673 7.57527 12.0673 7.25959C12.0673 6.62204 11.8141 6.01061 11.3632 5.55979C10.9124 5.10898 10.301 4.85571 9.66344 4.85571H6.89244C4.81419 6.58346 3.21905 8.8202 2.2625 11.3479C1.30596 13.8756 1.02065 16.608 1.43438 19.2788H6.45832C6.77402 19.2788 7.08664 19.2167 7.37832 19.0959C7.67001 18.9751 7.93504 18.798 8.15829 18.5748C8.38155 18.3516 8.55864 18.0866 8.67947 17.7949C8.8003 17.5033 8.8625 17.1907 8.86251 16.875C8.86251 16.2374 9.11576 15.626 9.56656 15.1752C10.0174 14.7244 10.6288 14.4711 11.2663 14.4711H14.4715C15.1069 14.4678 15.7152 14.2132 16.1634 13.7627C16.6115 13.3122 16.8631 12.7027 16.8631 12.0672C16.8631 11.4318 16.6115 10.8222 16.1634 10.3718C15.7152 9.92133 15.1066 9.66664 14.4712 9.6634Z" fill="#82D27D"/>
<path d="M2.5 18.125C2.5 18.5135 2.51875 18.8974 2.54694 19.2788H6.45831C6.77402 19.2789 7.08663 19.2167 7.37832 19.0959C7.67 18.9752 7.93504 18.7981 8.15829 18.5749C8.38154 18.3517 8.55864 18.0867 8.67947 17.795C8.8003 17.5033 8.86249 17.1907 8.8625 16.875C8.8625 16.2375 9.11576 15.6261 9.56656 15.1752C10.0174 14.7244 10.6288 14.4712 11.2663 14.4711H14.4715C15.1069 14.4679 15.7152 14.2132 16.1634 13.7628C16.6115 13.3123 16.8631 12.7027 16.8631 12.0673C16.8631 11.4319 16.6115 10.8223 16.1634 10.3718C15.7152 9.92138 15.1069 9.66669 14.4715 9.66345C14.1558 9.66346 13.8432 9.60129 13.5516 9.48049C13.2599 9.35969 12.9949 9.18263 12.7717 8.95941C12.5485 8.7362 12.3714 8.4712 12.2506 8.17955C12.1298 7.88791 12.0676 7.57532 12.0676 7.25964C12.0665 6.65542 11.8372 6.07393 11.4255 5.63162C11.0139 5.18931 10.4503 4.91885 9.84775 4.87439C7.59873 6.27753 5.74405 8.23025 4.45853 10.5485C3.17301 12.8668 2.49899 15.4742 2.5 18.125Z" fill="#69BC64"/>
<path d="M11.266 24.8878H3.46069C4.60026 26.7892 6.12945 28.4276 7.94769 29.6955H11.266C11.5827 29.6972 11.8966 29.6362 12.1897 29.5161C12.4828 29.396 12.7492 29.2192 12.9737 28.9958C13.1982 28.7724 13.3764 28.5069 13.498 28.2144C13.6196 27.922 13.6821 27.6084 13.6821 27.2917C13.6821 26.975 13.6196 26.6614 13.498 26.3689C13.3764 26.0765 13.1982 25.8109 12.9737 25.5876C12.7492 25.3642 12.4828 25.1874 12.1897 25.0673C11.8966 24.9472 11.5827 24.8862 11.266 24.8878Z" fill="#82D27D"/>
<path d="M11.266 24.8878H4.03564C4.66626 26.1961 5.476 27.4102 6.44152 28.4952C6.91864 28.9255 7.42166 29.3263 7.94777 29.6952H11.2661C11.5828 29.6968 11.8967 29.6358 12.1898 29.5157C12.4828 29.3956 12.7493 29.2188 12.9738 28.9955C13.1983 28.7721 13.3765 28.5065 13.4981 28.2141C13.6196 27.9216 13.6822 27.608 13.6822 27.2913C13.6822 26.9746 13.6196 26.661 13.4981 26.3686C13.3765 26.0761 13.1983 25.8106 12.9738 25.5872C12.7493 25.3638 12.4828 25.187 12.1898 25.0669C11.8967 24.9469 11.5827 24.8862 11.266 24.8878Z" fill="#69BC64"/>
<path d="M28.5181 6.45825H25.689C25.0514 6.45827 24.44 6.71153 23.9892 7.16233C23.5384 7.61313 23.2852 8.22454 23.2852 8.86206C23.2852 9.49959 23.5384 10.111 23.9892 10.5618C24.44 11.0126 25.0514 11.2659 25.689 11.2659H31.4585C30.778 9.49831 29.7816 7.86926 28.5181 6.45825Z" fill="#69BC64"/>
<path d="M25.6891 19.2788C25.6891 19.5945 25.6269 19.9071 25.5061 20.1987C25.3853 20.4904 25.2083 20.7554 24.9851 20.9786C24.7619 21.2018 24.4969 21.3789 24.2052 21.4997C23.9136 21.6205 23.601 21.6827 23.2853 21.6827H21.6827C21.366 21.6811 21.0521 21.7421 20.7591 21.8621C20.466 21.9822 20.1995 22.159 19.975 22.3824C19.7505 22.6058 19.5723 22.8713 19.4508 23.1638C19.3292 23.4562 19.2666 23.7698 19.2666 24.0865C19.2666 24.4032 19.3292 24.7168 19.4508 25.0093C19.5723 25.3017 19.7505 25.5673 19.975 25.7907C20.1995 26.014 20.466 26.1908 20.7591 26.3109C21.0521 26.431 21.366 26.492 21.6827 26.4904H29.1864C31.3373 23.7472 32.5043 20.3609 32.5 16.875H28.093C27.4554 16.875 26.844 17.1283 26.3932 17.5791C25.9424 18.0299 25.6891 18.6413 25.6891 19.2788Z" fill="#69BC64"/>
<path d="M33.125 26.875V24.375C33.1249 24.2093 33.059 24.0504 32.9418 23.9332C32.8246 23.816 32.6657 23.7501 32.5 23.75H27.5C27.3343 23.7501 27.1754 23.816 27.0582 23.9332C26.941 24.0504 26.8751 24.2093 26.875 24.375V26.875H25.625V24.375C25.6255 23.8779 25.8233 23.4013 26.1748 23.0498C26.5263 22.6983 27.0029 22.5005 27.5 22.5H32.5C32.9971 22.5005 33.4737 22.6983 33.8252 23.0498C34.1767 23.4013 34.3745 23.8779 34.375 24.375V26.875H33.125Z" fill="#996E52"/>
<path d="M38.75 35.1562V29.6875H21.25V35.1562L24.8438 38.75H35.1562L38.75 35.1562Z" fill="#A47D5E"/>
<path d="M22.5 29.6875V36.4062L24.8438 38.75H35.1562L38.75 35.1562V29.6875H22.5Z" fill="#996E52"/>
<path d="M21.25 35.1562C22.2031 35.1562 23.1172 35.5349 23.7912 36.2088C24.4651 36.8828 24.8438 37.7969 24.8438 38.75H23.125C22.6277 38.75 22.1508 38.5525 21.7992 38.2008C21.4475 37.8492 21.25 37.3723 21.25 36.875V35.1562Z" fill="#58606A"/>
<path d="M22.5 35.3842V36.875C22.5 37.3722 22.6975 37.8492 23.0492 38.2008C23.4008 38.5524 23.8777 38.75 24.375 38.75H24.8438C24.8433 38.0168 24.6185 37.3013 24.1996 36.6996C23.7806 36.0979 23.1875 35.6389 22.5 35.3842Z" fill="#3C4651"/>
<path d="M36.875 38.75H35.1562C35.1562 37.7969 35.5349 36.8828 36.2088 36.2088C36.8828 35.5349 37.7969 35.1562 38.75 35.1562V36.875C38.75 37.3723 38.5525 37.8492 38.2008 38.2008C37.8492 38.5525 37.3723 38.75 36.875 38.75Z" fill="#3C4651"/>
<path d="M21.25 28.125V29.6875L28.75 32.5H31.25L38.75 29.6875V28.125C38.75 27.6277 38.5525 27.1508 38.2008 26.7992C37.8492 26.4475 37.3723 26.25 36.875 26.25H23.125C22.6277 26.25 22.1508 26.4475 21.7992 26.7992C21.4475 27.1508 21.25 27.6277 21.25 28.125Z" fill="#B19075"/>
<path d="M28.75 32.5H31.25L38.75 29.6875V28.125C38.7475 27.9425 38.718 27.7614 38.6625 27.5875C38.4886 27.532 38.3075 27.5025 38.125 27.5H24.375C23.8777 27.5 23.4008 27.6975 23.0492 28.0492C22.6975 28.4008 22.5 28.8777 22.5 29.375V30.1562L28.75 32.5Z" fill="#A47D5E"/>
<path d="M30.625 34.375H31.875V30.625H28.125V34.375H29.375L30 33.75L30.625 34.375Z" fill="#FFD250"/>
<path d="M30 32.5C29.8342 32.5 29.6753 32.5658 29.5581 32.6831C29.4408 32.8003 29.375 32.9592 29.375 33.125V34.375H30.625V33.125C30.625 32.9592 30.5592 32.8003 30.4419 32.6831C30.3247 32.5658 30.1658 32.5 30 32.5Z" fill="#3C4651"/>
</svg>
