<svg width="40" height="40" viewBox="0 0 40 40" fill="none" xmlns="http://www.w3.org/2000/svg">
<g clip-path="url(#clip0_29_107)">
<path d="M39.5118 37.1534L32.4169 30.0585C35.0687 26.878 36.6666 22.7897 36.6666 18.3347C36.6666 8.22572 28.4423 0.00134277 18.3333 0.00134277C8.22422 0.00134277 0 8.22556 0 18.3347C0 28.4438 8.2243 36.6681 18.3334 36.6681C22.7897 36.6681 26.8794 35.0691 30.0602 32.4157L37.1549 39.5105C37.4804 39.836 37.907 39.9987 38.3334 39.9987C38.7598 39.9987 39.1865 39.836 39.5118 39.5105C40.1628 38.8595 40.1628 37.8042 39.5118 37.1534Z" fill="#9BC9FF"/>
<path d="M18.3334 3.33472C10.0624 3.33472 3.33337 10.0636 3.33337 18.3347C3.33337 26.6057 10.0624 33.3347 18.3334 33.3347C26.6044 33.3347 33.3334 26.6057 33.3334 18.3347C33.3334 10.0636 26.6043 3.33472 18.3334 3.33472ZM10.5556 26.1125C10.5556 21.8166 14.0379 18.3346 18.3334 18.3346C15.572 18.3346 13.3333 16.096 13.3333 13.3346C13.3333 10.5732 15.572 8.33464 18.3334 8.33464C21.0947 8.33464 23.3334 10.5731 23.3334 13.3346C23.3334 16.096 21.0947 18.3346 18.3334 18.3346C22.6287 18.3346 26.111 21.8164 26.111 26.1124H10.5556V26.1125Z" fill="#BDFDFF"/>
<path d="M18.3334 18.3343C21.0948 18.3343 23.3334 16.0958 23.3334 13.3344C23.3334 10.5729 21.0948 8.33435 18.3334 8.33435C15.572 8.33435 13.3334 10.5729 13.3334 13.3344C13.3334 16.0958 15.572 18.3343 18.3334 18.3343Z" fill="#ECB45C"/>
<path d="M18.3334 18.3347C14.0379 18.3347 10.5555 21.8166 10.5555 26.1125H18.3334H26.111C26.111 21.8166 22.6287 18.3347 18.3334 18.3347Z" fill="#3D6DEB"/>
</g>
<defs>
<clipPath id="clip0_29_107">
<rect width="40" height="40" fill="white"/>
</clipPath>
</defs>
</svg>
